<?xml version="1.0" encoding="UTF-8"?>
<!-- Uploaded to: SVG Repo, www.svgrepo.com, Generator: SVG Repo Mixer Tools -->
<svg width="40px" height="40px" viewBox="0 0 36 36" version="1.1" xmlns="http://www.w3.org/2000/svg" xmlns:xlink="http://www.w3.org/1999/xlink">
    
    <title>attention</title>
    <desc>Created with Sketch.</desc>
    <g id="icons" stroke="none" stroke-width="1" fill="none" fill-rule="evenodd">
        <g id="ui-gambling-website-lined-icnos-casinoshunter" transform="translate(-2422.000000, -282.000000)" fill="whitesmoke" fill-rule="nonzero">
            <g id="1" transform="translate(1350.000000, 120.000000)">
                <path d="M1090,162 C1099.94113,162 1108,170.058875 1108,180 C1108,189.941125 1099.94113,198 1090,198 C1080.05887,198 1072,189.941125 1072,180 C1072,170.058875 1080.05887,162 1090,162 Z M1090,186 C1089.44772,186 1089,186.447715 1089,187 C1089,187.552285 1089.44772,188 1090,188 C1090.55228,188 1091,187.552285 1091,187 C1091,186.447715 1090.55228,186 1090,186 Z M1090,172 C1089.44772,172 1089,172.447715 1089,173 L1089,173 L1089,183 C1089,183.552285 1089.44772,184 1090,184 C1090.55228,184 1091,183.552285 1091,183 L1091,183 L1091,173 C1091,172.447715 1090.55228,172 1090,172 Z" id="attention">

</path>
            </g>
        </g>
    </g>
</svg>