<svg width="269" height="82" viewBox="0 0 269 82" fill="none" xmlns="http://www.w3.org/2000/svg">
<path fill-rule="evenodd" clip-rule="evenodd" d="M241.952 74.9796C241.941 75.1932 241.925 75.3685 241.925 75.5437C241.924 76.6376 241.955 77.7344 241.913 78.8277C241.892 79.345 242.047 79.566 242.56 79.6971C248.637 81.2598 254.794 81.4899 260.999 80.8197C262.886 80.6152 264.745 80.2116 266.406 79.2064C267.617 78.4745 268.459 77.4649 268.806 76.0645C269.419 73.5883 268.573 71.5184 266.337 70.2987C265.557 69.8731 264.701 69.5484 263.842 69.3109C261.243 68.5919 258.56 68.4818 255.886 68.3059C253.72 68.1628 251.552 68.0196 249.392 67.8051C248.794 67.7463 248.177 67.5153 247.647 67.2201C246.857 66.7797 246.841 65.9177 247.61 65.4492C248.115 65.1418 248.708 64.8815 249.286 64.8144C251.083 64.6053 252.89 64.4073 254.697 64.3705C258.692 64.2898 262.61 64.8724 266.447 65.9827C266.597 66.0261 266.753 66.0426 266.938 66.0773C266.953 65.8904 266.972 65.7628 266.973 65.6353C266.976 64.4915 266.961 63.347 266.983 62.2036C266.99 61.8716 266.86 61.7587 266.563 61.6806C260.772 60.1445 254.911 59.7694 248.982 60.6629C247.163 60.937 245.409 61.4551 243.874 62.5327C241.491 64.2075 241.076 67.6006 243.002 69.7128C243.71 70.4904 244.609 70.9892 245.583 71.3561C247.889 72.2255 250.306 72.4888 252.741 72.6326C255.121 72.7731 257.507 72.85 259.884 73.038C260.866 73.116 261.838 73.3792 262.8 73.6187C263.304 73.7443 263.676 74.134 263.717 74.6621C263.756 75.1713 263.413 75.5372 262.997 75.8096C262.901 75.8719 262.806 75.9434 262.699 75.9784C261.987 76.2056 261.285 76.5019 260.555 76.6313C257.967 77.0898 255.354 77.0834 252.737 76.9677C249.177 76.8109 245.682 76.312 242.324 75.0564C242.223 75.0181 242.111 75.0115 241.952 74.9796M232.324 74.6496C233.862 73.2026 234.058 71.3536 233.686 69.4066C233.411 67.9585 232.561 66.8774 231.243 66.228C230.533 65.8759 229.771 65.6035 229.005 65.4036C228.276 65.2137 227.522 65.1311 226.773 65.0155V65.0808C226.482 65.0477 226.191 64.9863 225.9 64.9854C222.646 64.9659 219.392 64.9551 216.139 64.9459C216.014 64.9459 215.891 64.9762 215.76 64.9935V76.6727H216.376C219.074 76.6718 221.773 76.6737 224.472 76.6711C225.167 76.6699 225.862 76.6599 226.557 76.6526V76.6507C227.201 76.5526 227.847 76.4681 228.487 76.3517C229.902 76.0931 231.258 75.6538 232.324 74.6496M235.917 63.8585C238.455 65.8504 239.434 68.543 239.156 71.694C238.799 75.7477 236.34 78.1532 232.732 79.5729C230.821 80.3249 228.816 80.6505 226.773 80.7577V80.7697C223.407 80.7935 220.039 80.82 216.674 80.8384C214.793 80.8476 212.913 80.8284 211.033 80.8485C210.612 80.8531 210.471 80.7539 210.478 80.3085C210.504 78.4787 210.488 76.649 210.488 74.8196C210.488 70.3935 210.488 65.9669 210.49 61.541V60.8127C210.657 60.7962 210.797 60.7724 210.937 60.7724C215.824 60.7751 220.711 60.7789 225.599 60.7881C225.992 60.7889 226.382 60.8385 226.773 60.8631V60.8789C230.072 61.0888 233.234 61.7547 235.917 63.8585M128.324 48.3664C129.926 45.7895 131.484 43.2841 133.092 40.6977C134.605 43.2822 136.077 45.7933 137.583 48.3664H128.324ZM118.261 56.4977C119.781 56.4977 121.302 56.4873 122.823 56.505C123.176 56.5096 123.384 56.4031 123.567 56.0957C124.229 54.9889 124.929 53.905 125.596 52.8006C125.753 52.5411 125.934 52.4577 126.23 52.4585C130.677 52.4662 135.125 52.4669 139.572 52.4585C139.873 52.4577 140.05 52.5558 140.198 52.8136C140.83 53.9197 141.486 55.0108 142.113 56.1187C142.269 56.3931 142.445 56.5077 142.769 56.5039C144.355 56.4893 145.942 56.4993 147.527 56.4966C147.663 56.4966 147.797 56.4673 147.992 56.4462C147.298 55.2962 146.641 54.2095 145.983 53.1226C142.691 47.6888 139.397 42.2568 136.112 36.8213C135.941 36.5362 135.749 36.4243 135.412 36.4278C133.907 36.4462 132.402 36.4452 130.899 36.4289C130.567 36.4251 130.365 36.5278 130.185 36.8113C128.74 39.1031 127.28 41.3875 125.821 43.6711C123.537 47.2495 121.25 50.8252 118.966 54.4028C118.546 55.0588 118.133 55.7179 117.642 56.4976L118.261 56.4977ZM163.016 65.028C164.538 67.6309 166.001 70.1317 167.502 72.6985H158.249C159.843 70.1344 161.403 67.6244 163.016 65.028M177.943 80.8362C177.77 80.5418 177.651 80.3365 177.526 80.131C176.416 78.3043 175.304 76.4765 174.196 74.6468C171.463 70.1364 168.73 65.6263 166.004 61.1106C165.851 60.8547 165.678 60.761 165.38 60.7647C163.859 60.7794 162.338 60.7802 160.818 60.7656C160.486 60.761 160.286 60.8674 160.107 61.1545C159.391 62.3055 158.648 63.4373 157.919 64.5788C154.871 69.3551 151.825 74.1314 148.778 78.9084C148.388 79.5211 148.004 80.1382 147.604 80.7731C147.702 80.8058 147.745 80.8335 147.79 80.8335C149.507 80.8371 151.223 80.8481 152.939 80.8216C153.113 80.8197 153.338 80.6263 153.445 80.4611C154.135 79.39 154.807 78.3078 155.464 77.2156C155.636 76.9323 155.831 76.8239 156.168 76.825C160.599 76.8358 165.03 76.8378 169.46 76.825C169.827 76.8231 170.015 76.958 170.186 77.2567C170.809 78.3492 171.447 79.4311 172.099 80.5069C172.185 80.6509 172.379 80.8197 172.526 80.8216C174.291 80.8435 176.055 80.8362 177.943 80.8362M142.505 24.2571V32.1067H147.724C147.74 32.0141 147.754 31.9664 147.754 31.9196C147.756 25.465 147.756 19.0104 147.764 12.5561C147.765 12.2544 147.655 12.1579 147.362 12.1598C145.859 12.1691 144.353 12.1625 142.848 12.1672C142.74 12.1672 142.631 12.2037 142.476 12.2322V20.0487H125.774V19.4892C125.774 17.2175 125.766 14.9459 125.783 12.6752C125.786 12.2617 125.653 12.1479 125.253 12.1544C123.862 12.1753 122.472 12.1791 121.082 12.1525C120.631 12.1442 120.503 12.2828 120.504 12.734C120.518 19.0253 120.512 25.3155 120.513 31.6068C120.513 31.7782 120.531 31.9499 120.538 32.114H125.769V24.2571H142.505ZM185.792 64.9659C185.979 64.957 186.139 64.944 186.297 64.9451C189.779 64.9513 193.263 64.9275 196.746 64.9927C197.742 65.012 198.759 65.2026 199.72 65.4786C200.735 65.7676 201.159 66.5151 201.158 67.567C201.157 68.5877 200.709 69.2498 199.745 69.6434C198.582 70.1165 197.346 70.1375 196.124 70.1469C192.789 70.1769 189.454 70.1577 186.117 70.1568C186.022 70.156 185.926 70.1412 185.792 70.1292L185.792 64.9659ZM199.918 74.0921C200.926 73.751 201.9 73.5078 202.8 73.0989C205.142 72.0389 206.431 70.2203 206.446 67.6073C206.461 65.0478 205.253 63.2284 202.973 62.1001C201.024 61.1373 198.919 60.8191 196.787 60.7999C191.49 60.7503 186.19 60.7761 180.893 60.7723C180.783 60.7723 180.671 60.7934 180.517 60.8088C180.507 61.0144 180.49 61.2061 180.49 61.3975C180.488 67.2956 180.488 73.1953 180.488 79.092C180.488 79.5497 180.498 80.0082 180.486 80.4651C180.478 80.7329 180.565 80.8448 180.849 80.8437C182.419 80.8318 183.989 80.8356 185.558 80.8318C185.617 80.8309 185.676 80.7942 185.782 80.7595V74.3068H186.362C188.634 74.3068 190.908 74.3187 193.179 74.2967C193.639 74.2922 193.971 74.4159 194.302 74.7423C196.247 76.6562 198.218 78.5428 200.168 80.4501C200.458 80.7318 200.752 80.8548 201.162 80.8494C202.945 80.8263 204.728 80.841 206.51 80.8383C206.682 80.8383 206.851 80.8199 207.159 80.8034C204.678 78.5032 202.302 76.3014 199.918 74.0921M157.72 28.0748V24.0985H175.726V20.1374H157.71V16.1793H177.006C177.006 14.9779 176.989 13.8518 177.013 12.7273C177.022 12.2964 176.925 12.145 176.449 12.1459C168.65 12.1616 160.848 12.157 153.048 12.1559C152.411 12.1559 152.409 12.157 152.409 12.8062C152.408 19.0809 152.408 25.3567 152.409 31.6312C152.409 31.7899 152.422 31.9486 152.431 32.1193H176.977V28.0748H157.72ZM211.357 40.5265V36.4693H186.866V56.4576H211.363V52.413H192.127V48.4522H210.142V44.4792H209.22C203.807 44.4792 198.395 44.4792 192.983 44.4803C192.802 44.4803 192.622 44.4719 192.443 44.483C192.202 44.4976 192.084 44.4142 192.086 44.151C192.093 42.9761 192.089 41.8005 192.089 40.5265L211.357 40.5265ZM140.902 74.6842C140.858 74.6769 140.814 74.6685 140.77 74.6623C140.623 74.3026 140.473 73.944 140.331 73.5836C138.702 69.4191 137.076 65.2527 135.433 61.0939C135.375 60.9499 135.139 60.7865 134.984 60.7838C133.546 60.76 132.107 60.7792 130.667 60.7638C130.367 60.7608 130.237 60.8756 130.142 61.1478C129.915 61.7934 129.658 62.4299 129.408 63.0682C128.071 66.4871 126.733 69.9071 125.391 73.3241C125.205 73.7991 125.001 74.2661 124.774 74.808C124.672 74.5861 124.604 74.4567 124.551 74.3203C122.847 69.9575 121.141 65.5966 119.449 61.2285C119.318 60.8876 119.157 60.7546 118.781 60.76C117.293 60.783 115.805 60.77 114.317 60.7719C114.146 60.7719 113.975 60.7892 113.739 60.803C113.813 61.0268 113.851 61.1809 113.913 61.3249C116.588 67.7069 119.267 74.0881 121.934 80.4739C122.048 80.7472 122.179 80.8453 122.468 80.8444C123.923 80.8325 125.379 80.8315 126.834 80.8453C127.13 80.848 127.29 80.7526 127.369 80.4729C127.416 80.3014 127.497 80.1381 127.563 79.9705C129.238 75.7023 130.915 71.434 132.592 67.1651C132.64 67.0439 132.708 66.9294 132.805 66.7349C133.11 67.4943 133.382 68.1573 133.644 68.823C135.153 72.6666 136.664 76.5093 138.16 80.3575C138.298 80.7142 138.467 80.858 138.868 80.849C140.143 80.8206 141.419 80.848 142.694 80.8369C143.658 80.8268 143.429 81.014 143.814 80.0959C146.437 73.8514 149.046 67.5997 151.659 61.3515C151.725 61.1928 151.77 61.024 151.835 60.8296C151.701 60.8023 151.626 60.7746 151.55 60.7746C149.931 60.7711 148.311 60.7618 146.693 60.7857C146.545 60.7884 146.325 60.9737 146.264 61.1258C145.044 64.1696 143.839 67.2192 142.635 70.2692C142.055 71.7403 141.48 73.2123 140.902 74.6843M155.956 43.5592C156.121 43.7867 156.21 43.8929 156.281 44.0085C158.771 48.0189 161.263 52.0266 163.737 56.0454C163.943 56.3828 164.156 56.5141 164.549 56.5066C165.84 56.4838 167.133 56.4784 168.424 56.5104C168.86 56.5204 169.093 56.3701 169.315 56.0061C171.559 52.3432 173.822 48.6922 176.083 45.0393C176.367 44.5773 176.662 44.1215 176.951 43.6629C177.067 44.0681 177.102 44.4405 177.102 44.812C177.107 48.5381 177.11 52.2633 177.1 55.9904C177.099 56.3582 177.179 56.5131 177.587 56.5066C178.976 56.4838 180.367 56.4993 181.757 56.4957C181.88 56.4957 182.004 56.4654 182.128 56.45V36.4828C182.052 36.4636 182.006 36.4416 181.959 36.4416C180.111 36.439 178.264 36.4278 176.416 36.4527C176.244 36.4555 176.016 36.6453 175.913 36.8094C173.145 41.2022 170.389 45.6026 167.629 50.0019C167.269 50.5758 166.905 51.1472 166.506 51.7783C165.365 49.954 164.275 48.2118 163.184 46.47C161.164 43.2445 159.141 40.0212 157.133 36.7891C156.962 36.5169 156.78 36.4224 156.465 36.4289C155.452 36.449 154.437 36.4362 153.424 36.4362H150.895C150.879 36.625 150.857 36.768 150.857 36.9112C150.856 43.284 150.86 49.6569 150.849 56.0308C150.848 56.3931 150.95 56.5112 151.319 56.505C152.725 56.4865 154.132 56.4993 155.538 56.4957C155.663 56.4957 155.787 56.4662 155.956 56.4462V43.5592M115.601 43.1564C115.631 43.0288 115.658 42.9692 115.658 42.9097C115.662 41.5707 115.674 40.2317 115.648 38.8947C115.645 38.7387 115.463 38.5196 115.309 38.4454C114.663 38.1345 114.003 37.852 113.347 37.5649V37.5265C111.28 36.721 109.132 36.2498 106.928 36.0415C104.316 35.7959 101.707 35.8243 99.1137 36.2506C96.8255 36.6257 94.6475 37.2979 92.6645 38.5626C87.8528 41.6303 87.5031 47.719 89.8282 51.334C91.1891 53.4488 93.2094 54.699 95.5112 55.5418C97.6783 56.3339 99.9343 56.6614 102.228 56.7881C105.147 56.9476 108.039 56.7989 110.873 56.0276C111.705 55.8021 112.523 55.5269 113.347 55.2758V55.1372C113.973 54.8612 114.598 54.5825 115.231 54.3228C115.534 54.1971 115.624 54.0165 115.622 53.6902C115.609 50.8489 115.615 48.0069 115.614 45.1656C115.613 45.0099 115.596 44.8547 115.585 44.6852H113.347C108.478 44.6806 103.61 44.6768 98.7432 44.6752C98.679 44.6752 98.6156 44.6952 98.5157 44.7109V48.116H110.484C110.484 49.2936 110.496 50.4169 110.466 51.5376C110.463 51.6532 110.23 51.8212 110.076 51.8643C107.794 52.4961 105.475 52.7886 103.104 52.6548C101.154 52.5445 99.2291 52.3162 97.417 51.5322C95.8828 50.8663 94.6418 49.8823 94.0376 48.2517C93.0507 45.5903 94.2632 42.7602 96.9373 41.4488C99.0395 40.4181 101.294 40.1364 103.596 40.0657C106.887 39.9639 110.024 40.6199 113.033 41.9073V41.9393C113.879 42.3401 114.724 42.7409 115.601 43.1564ZM116.665 12.6367C116.673 12.2359 116.529 12.1471 116.157 12.1517C115.221 12.1636 114.283 12.1443 113.347 12.1332V12.1286C113.327 12.1297 113.307 12.1314 113.287 12.1325C113.202 12.1314 113.119 12.1297 113.033 12.1286V12.146C112.927 12.1517 112.819 12.1563 112.711 12.1571C104.789 12.1579 96.8659 12.1563 88.9412 12.159C87.6811 12.1598 87.9259 12.0398 87.9031 13.1963C87.8847 14.172 87.8993 15.1486 87.8993 16.1786H88.5404H98.7836C99.7409 16.1786 99.7363 16.1786 99.7363 17.1205C99.7344 21.9233 99.7363 26.727 99.7371 31.5306V32.1278H104.933V16.2062C105.157 16.1951 105.332 16.1794 105.508 16.1794C106.602 16.1778 107.697 16.1824 108.792 16.1778C110.31 16.1713 111.827 16.1594 113.347 16.1494H116.655C116.655 14.9423 116.638 13.7886 116.665 12.6367M107.274 72.6858C105.768 70.1144 104.304 67.6151 102.79 65.0318C101.185 67.6151 99.628 70.1252 98.0369 72.6858H107.274ZM117.338 80.3988C117.405 80.5079 117.457 80.6271 117.582 80.8674H113.033V80.8535C112.224 80.9995 111.804 80.5548 111.455 79.865C110.991 78.9499 110.427 78.0849 109.922 77.1898C109.777 76.935 109.609 76.8258 109.304 76.8266C104.829 76.837 100.354 76.8304 95.8791 76.847C95.6838 76.8477 95.4133 76.9983 95.306 77.1633C94.61 78.2289 93.9386 79.3112 93.2838 80.4023C93.0958 80.7151 92.8902 80.8554 92.507 80.8492C91.0048 80.8243 89.5025 80.8389 87.9994 80.8381H87.3695C87.7288 80.2539 88.0251 79.7586 88.3352 79.2716C91.8413 73.7663 95.3491 68.2621 98.8571 62.7586C99.2165 62.1955 99.5677 61.6233 99.9666 61.0884C100.089 60.9254 100.356 60.7878 100.558 60.784C102.109 60.7594 103.661 60.7602 105.213 60.784C105.394 60.7867 105.646 60.9327 105.741 61.0876C107.934 64.6807 110.108 68.2866 112.292 71.8873C112.627 72.4385 112.994 72.9722 113.347 73.5134V73.9058C113.714 74.4799 114.083 75.053 114.439 75.6344C115.412 77.2182 116.374 78.8093 117.338 80.3988M65.3457 42.003C65.2019 42.101 65.1413 42.1305 65.0974 42.1744C62.9137 44.3516 60.7284 46.5269 58.5583 48.717C58.4218 48.8554 58.353 49.1186 58.3511 49.3242C58.3365 51.3481 58.3419 53.3711 58.3438 55.3961C58.3438 55.5136 58.3657 55.632 58.386 55.8327C59.4049 54.8431 60.3522 53.9014 61.3253 52.9879C61.6801 52.6532 61.9306 52.2919 62.0836 51.8242C62.9449 49.2066 63.8307 46.5986 64.7047 43.9868C64.9149 43.3585 65.112 42.7266 65.3457 42.003M50.7251 48.4473C50.9526 48.2417 51.0763 48.1372 51.192 48.0254C53.436 45.839 55.6785 43.648 57.926 41.4627C61.3661 38.118 64.8118 34.778 68.2472 31.427C68.4121 31.2656 68.5462 31.0354 68.612 30.8125C69.3998 28.1877 70.1703 25.5585 70.9452 22.929C71.0909 22.4302 71.2277 21.9267 71.3964 21.3252C71.2415 21.4333 71.1838 21.4628 71.1388 21.5067C69.1588 23.472 67.1758 25.4347 65.2015 27.4055C62.9041 29.6999 60.6151 32.0047 58.3196 34.3021C55.8856 36.7379 53.4452 39.1672 51.0213 41.6122C50.8691 41.7652 50.7581 42.0323 50.7554 42.2487C50.727 43.7829 50.7316 45.319 50.7251 46.8532C50.7232 47.3394 50.7251 47.8255 50.7251 48.4473M77.674 0.0817937C77.641 0.0550194 77.609 0.0295481 77.5759 0.00276961C76.8101 0.782443 76.0499 1.5665 75.2785 2.33967C72.0953 5.52921 68.9139 8.71979 65.7263 11.902C62.1652 15.455 58.5922 18.9949 55.0346 22.5487C51.1399 26.4372 47.2505 30.3311 43.372 34.2351C43.2225 34.3857 43.1291 34.6578 43.1253 34.8753C43.0961 36.7535 43.0923 38.6325 43.083 40.5107C43.0822 40.6512 43.1015 40.7915 43.1161 40.9941C43.2529 40.8858 43.3444 40.8262 43.4208 40.7512C46.9158 37.3165 50.4127 33.883 53.9039 30.4457C57.7548 26.6525 61.6021 22.855 65.4519 19.061C68.4757 16.0814 71.5049 13.1064 74.5221 10.1211C74.6863 9.95774 74.8246 9.73216 74.8916 9.51032C75.395 7.85588 75.8765 6.19518 76.3646 4.53609C76.8011 3.05115 77.2385 1.5665 77.674 0.0817937ZM12.4176 41.9974C12.4625 42.2146 12.4753 42.3384 12.5148 42.454C13.6152 45.6822 14.7131 48.9113 15.83 52.1338C15.9272 52.4128 16.1125 52.6842 16.3215 52.896C17.3342 53.9159 18.3657 54.9155 19.3976 55.9151C19.7681 56.2745 20.1597 56.612 20.5906 57.0028C19.8211 57.7584 19.1536 58.4262 18.4694 59.0781C18.2677 59.2698 18.1989 59.4377 18.3107 59.7145C18.6988 60.6849 19.0601 61.6634 19.4333 62.6392C19.6167 63.1188 19.8057 63.5976 19.9918 64.0754C20.0597 64.1138 20.1285 64.1534 20.1962 64.1918C21.4068 62.8986 22.6182 61.6076 23.8949 60.2448C25.3138 61.7368 26.6489 63.1407 28.0055 64.5669C27.9852 64.5899 27.9145 64.6761 27.8365 64.7541C26.1032 66.4827 24.3726 68.2168 22.6301 69.9374C22.4211 70.1437 22.3845 70.3117 22.5029 70.5765C22.7092 71.038 22.8733 71.5165 23.0605 71.9854C23.4456 72.9511 23.8334 73.9139 24.2462 74.9431C26.6939 72.5338 29.0839 70.1806 31.5086 67.7941C32.8376 69.1542 34.1216 70.4704 35.4778 71.8597C32.5413 74.7979 29.5955 77.7456 26.6159 80.7271C26.7215 80.739 26.7957 80.7555 26.871 80.7555C28.9618 80.7564 31.0528 80.7628 33.1447 80.7463C33.3299 80.7444 33.552 80.6326 33.6931 80.5015C34.2353 80.0062 34.7523 79.4835 35.2761 78.9689C36.5197 77.7456 37.7634 76.5211 39.0335 75.2694C39.1765 75.4005 39.2976 75.5034 39.4102 75.6134C41.0547 77.2256 42.6907 78.8451 44.3517 80.44C44.537 80.618 44.8571 80.739 45.1165 80.7426C46.946 80.7683 48.7765 80.7574 50.6062 80.7582H51.0465C38.1996 67.8675 25.3449 54.9696 12.4176 41.9974M53.2923 75.1134C53.3977 74.9777 53.4353 74.9458 53.4508 74.9054C54.0076 73.4755 54.5514 72.0411 55.1229 70.618C55.2493 70.3025 55.0676 70.1703 54.8962 69.9997C50.7428 65.8609 46.5856 61.7249 42.4374 57.5804C37.0872 52.2367 31.746 46.8845 26.3985 41.5378C20.4162 35.5555 14.4313 29.5781 8.45088 23.594C7.80985 22.953 7.19453 22.2842 6.56811 21.6286C6.52045 21.6616 6.47359 21.6957 6.427 21.7285C6.45544 21.881 6.47088 22.0359 6.51395 22.1827C7.32751 24.954 8.13538 27.7265 8.97088 30.4914C9.10846 30.9455 9.27176 31.4598 9.58998 31.7818C11.9543 34.1746 14.3598 36.5267 16.7533 38.891C20.309 42.4036 23.8617 45.9179 27.4239 49.4229C27.6768 49.6715 27.7813 49.9256 27.7751 50.2822C27.7513 51.7203 27.7556 53.1584 27.7513 54.5954C27.7494 55.1576 27.7513 55.7198 27.7513 56.2819C27.8036 56.3122 27.8566 56.3406 27.9089 56.3698C28.9351 55.2595 29.9623 54.1488 30.995 53.0308C31.2241 53.2271 31.3259 53.3041 31.4169 53.3932C32.6153 54.5735 33.804 55.763 35.0146 56.9313C35.296 57.2026 35.4181 57.4816 35.4135 57.874C35.3932 59.6384 35.4008 61.4029 35.4008 63.1675C35.4008 63.3244 35.4143 63.4801 35.4281 63.7571C36.5618 62.6603 37.6183 61.6388 38.6572 60.6345C38.7471 60.6768 38.7828 60.6849 38.8048 60.7068C40.1906 62.0688 41.5791 63.4289 42.9546 64.8017C43.0676 64.9146 43.1472 65.1153 43.1491 65.276C43.1564 66.2883 43.1345 67.301 43.1291 68.3132C43.1234 69.1845 43.128 70.0557 43.128 71.0637C44.2286 70.0016 45.2282 69.0377 46.3792 67.9262C48.7094 70.3493 50.9911 72.7218 53.2923 75.1134M57.5237 64.1689C56.3434 62.9007 55.1686 61.637 53.9626 60.3402C52.8546 61.4114 51.8753 62.3568 50.792 63.4022C50.792 63.0824 50.7931 62.8952 50.792 62.7073C50.7912 61.0904 50.7977 59.4726 50.782 57.8549C50.7801 57.6431 50.7389 57.3707 50.606 57.2304C49.2413 55.7796 47.8528 54.3515 46.4287 52.8741C45.2804 53.9856 44.257 54.976 43.1152 56.0813V55.4348C43.1152 53.6858 43.1217 51.9379 43.106 50.1889C43.1041 49.9825 43.0337 49.7239 42.8988 49.579C41.5845 48.1693 40.2501 46.7792 38.8104 45.2677C37.6529 46.5306 36.6322 47.6447 35.6106 48.7592C35.5491 48.7169 35.4868 48.6747 35.4254 48.6335C35.417 48.4814 35.4015 48.3299 35.4015 48.1785C35.4034 46.3326 35.4199 44.4856 35.395 42.6394C35.3915 42.3669 35.2585 42.0276 35.0676 41.8361C31.3847 38.1529 27.6851 34.4845 23.9873 30.8162C18.5849 25.4576 13.1803 20.0991 7.77595 14.7433C6.25635 13.2374 4.72103 11.7463 3.21416 10.2275C2.97393 9.98538 2.77488 9.65252 2.67684 9.3259C1.78176 6.35737 0.913218 3.38129 0.0403542 0.407355C0.0108354 0.30744 0.0127293 0.198252 0 0.0937144C0.0403542 0.0622975 0.0815213 0.0311487 0.122684 0C0.6814 0.586869 1.22603 1.1876 1.79828 1.75987C7.50539 7.46344 13.2179 13.1594 18.925 18.8627C24.078 24.0114 29.2229 29.1682 34.3754 34.3185C39.0184 38.961 43.6671 43.5986 48.3132 48.2392C51.9422 51.8653 55.571 55.4898 59.189 59.1258C59.3084 59.2453 59.4092 59.5129 59.3577 59.6524C58.8204 61.1058 58.25 62.5475 57.6878 63.9921C57.6767 64.0194 57.6447 64.0398 57.5237 64.1689" fill="#808080"/>
</svg>
