<svg width="24" height="24" viewBox="0 0 24 24" fill="none" xmlns="http://www.w3.org/2000/svg">
<path d="M17.803 12.1359C17.7334 12.0648 17.6503 12.0082 17.5586 11.9695C17.467 11.9308 17.3685 11.9107 17.2689 11.9104C17.1694 11.9101 17.0708 11.9297 16.9789 11.9679C16.887 12.0061 16.8036 12.0622 16.7337 12.133C16.6637 12.2038 16.6085 12.2878 16.5713 12.3801C16.5341 12.4724 16.5156 12.5712 16.517 12.6707C16.5183 12.7702 16.5395 12.8685 16.5792 12.9598C16.619 13.051 16.6765 13.1335 16.7484 13.2023C17.3847 13.8284 17.8895 14.5753 18.2332 15.3992C18.577 16.2231 18.7527 17.1073 18.75 18C18.75 18.9173 16.1206 20.25 12 20.25C7.87946 20.25 5.25004 18.9167 5.25004 17.9985C5.24751 17.1119 5.42086 16.2337 5.76006 15.4146C6.09926 14.5954 6.59757 13.8517 7.22614 13.2265C7.29723 13.1572 7.35385 13.0744 7.39272 12.9831C7.43159 12.8917 7.45192 12.7935 7.45255 12.6942C7.45318 12.5949 7.43409 12.4965 7.39638 12.4047C7.35868 12.3128 7.30311 12.2294 7.2329 12.1592C7.16269 12.0889 7.07924 12.0334 6.98738 11.9957C6.89553 11.958 6.79711 11.9389 6.69782 11.9395C6.59853 11.9401 6.50035 11.9605 6.40898 11.9993C6.31762 12.0382 6.23487 12.0948 6.16556 12.1659C5.39713 12.9303 4.78796 13.8395 4.37333 14.841C3.9587 15.8424 3.74685 16.9161 3.75004 18C3.75004 20.4357 8.00029 21.75 12 21.75C15.9998 21.75 20.25 20.4357 20.25 18C20.2534 16.9088 20.0386 15.828 19.6184 14.821C19.1982 13.814 18.581 12.9011 17.803 12.1359Z" fill="white"/>
<path d="M12 12.75C13.0384 12.75 14.0534 12.4421 14.9167 11.8652C15.7801 11.2883 16.453 10.4684 16.8504 9.50909C17.2477 8.54978 17.3517 7.49418 17.1491 6.47578C16.9466 5.45738 16.4465 4.52192 15.7123 3.78769C14.9781 3.05347 14.0426 2.55345 13.0242 2.35088C12.0058 2.14831 10.9502 2.25227 9.99091 2.64963C9.0316 3.04699 8.21166 3.7199 7.63478 4.58326C7.05791 5.44662 6.75 6.46165 6.75 7.5C6.75161 8.8919 7.30525 10.2263 8.28946 11.2105C9.27368 12.1948 10.6081 12.7484 12 12.75ZM12 3.75C12.7417 3.75 13.4667 3.96994 14.0834 4.38199C14.7001 4.79405 15.1807 5.37972 15.4645 6.06494C15.7484 6.75016 15.8226 7.50416 15.6779 8.23159C15.5333 8.95902 15.1761 9.62721 14.6517 10.1517C14.1272 10.6761 13.459 11.0333 12.7316 11.1779C12.0042 11.3226 11.2502 11.2484 10.5649 10.9646C9.87971 10.6807 9.29404 10.2001 8.88199 9.58339C8.46993 8.96671 8.25 8.24168 8.25 7.5C8.25117 6.5058 8.64664 5.55265 9.34964 4.84965C10.0527 4.14664 11.0058 3.75117 12 3.75Z" fill="white"/>
</svg>
